<svg viewBox="0 0 200 200" fill="none" xmlns="http://www.w3.org/2000/svg">
<path d="M90 5.7735C96.188 2.20085 103.812 2.20085 110 5.7735L176.603 44.2265C182.791 47.7992 186.603 54.4017 186.603 61.547V138.453C186.603 145.598 182.791 152.201 176.603 155.774L110 194.226C103.812 197.799 96.188 197.799 90 194.226L23.3975 155.774C17.2094 152.201 13.3975 145.598 13.3975 138.453V61.547C13.3975 54.4017 17.2094 47.7992 23.3975 44.2265L90 5.7735Z" fill="#7480FF"/>
<path d="M75.2441 93V91.4619L77.2339 91.1201V77.0454H73.2056L72.8516 79.5112H71.0449V75.2266H85.8154V79.5112H84.0332L83.667 77.0454H79.6387V91.1201L81.6284 91.4619V93H75.2441ZM92.5659 93.2563C91.3452 93.2563 90.2913 92.9715 89.4043 92.4019C88.5254 91.8241 87.8459 91.0306 87.3657 90.0215C86.8856 89.0042 86.6455 87.8446 86.6455 86.5425V86.2739C86.6455 84.9718 86.8856 83.8162 87.3657 82.8071C87.8459 81.7899 88.5254 80.9924 89.4043 80.4146C90.2913 79.8368 91.3371 79.5479 92.5415 79.5479C93.7622 79.5479 94.812 79.8368 95.6909 80.4146C96.578 80.9924 97.2616 81.7858 97.7417 82.7949C98.2218 83.804 98.4619 84.9637 98.4619 86.2739V86.5425C98.4619 87.8527 98.2218 89.0164 97.7417 90.0337C97.2616 91.0428 96.582 91.8322 95.7031 92.4019C94.8242 92.9715 93.7785 93.2563 92.5659 93.2563ZM92.5659 91.3765C93.3309 91.3765 93.9697 91.1689 94.4824 90.7539C95.0033 90.3307 95.3939 89.757 95.6543 89.0327C95.9228 88.3003 96.0571 87.4702 96.0571 86.5425V86.2739C96.0571 85.3462 95.9228 84.5202 95.6543 83.7959C95.3939 83.0635 95.0033 82.4897 94.4824 82.0747C93.9616 81.6515 93.3146 81.4399 92.5415 81.4399C91.7765 81.4399 91.1336 81.6515 90.6128 82.0747C90.092 82.4897 89.7013 83.0635 89.4409 83.7959C89.1805 84.5202 89.0503 85.3462 89.0503 86.2739V86.5425C89.0503 87.4702 89.1805 88.3003 89.4409 89.0327C89.7013 89.757 90.092 90.3307 90.6128 90.7539C91.1418 91.1689 91.7928 91.3765 92.5659 91.3765ZM104.98 93.2075C104.004 93.2075 103.227 92.9227 102.649 92.353C102.079 91.7752 101.794 90.8556 101.794 89.5942V81.5742H99.707V79.792H101.794V76.606H104.199V79.792H107.068V81.5742H104.199V89.5942C104.199 90.229 104.325 90.6969 104.578 90.998C104.83 91.2992 105.168 91.4497 105.591 91.4497C105.876 91.4497 106.193 91.4253 106.543 91.3765C106.893 91.3195 107.166 91.2707 107.361 91.23L107.69 92.8047C107.34 92.9105 106.909 93.0041 106.396 93.0854C105.892 93.1668 105.42 93.2075 104.98 93.2075ZM113.501 93.2563C112.126 93.2563 111.08 92.9227 110.364 92.2554C109.648 91.5799 109.29 90.6318 109.29 89.4111C109.29 88.5729 109.517 87.8446 109.973 87.2261C110.437 86.5994 111.104 86.1152 111.975 85.7734C112.846 85.4235 113.888 85.2485 115.1 85.2485H117.456V83.9546C117.456 83.1571 117.212 82.5386 116.724 82.0991C116.243 81.6597 115.564 81.4399 114.685 81.4399C114.132 81.4399 113.652 81.5091 113.245 81.6475C112.838 81.7777 112.467 81.9608 112.134 82.1968L111.877 84.04H110.022V81.0127C110.616 80.5326 111.308 80.1704 112.097 79.9263C112.887 79.674 113.761 79.5479 114.722 79.5479C116.325 79.5479 117.582 79.9303 118.494 80.6953C119.405 81.4603 119.861 82.5549 119.861 83.979V90.3389C119.861 90.5098 119.861 90.6766 119.861 90.8394C119.869 91.0021 119.881 91.1649 119.897 91.3276L121.179 91.4619V93H117.725C117.651 92.6419 117.594 92.3205 117.554 92.0356C117.513 91.7508 117.485 91.466 117.468 91.1812C117.004 91.7752 116.423 92.2716 115.723 92.6704C115.031 93.061 114.29 93.2563 113.501 93.2563ZM113.855 91.2422C114.653 91.2422 115.381 91.0509 116.04 90.6685C116.699 90.286 117.171 89.8262 117.456 89.2891V86.8965H115.015C113.908 86.8965 113.078 87.161 112.524 87.6899C111.971 88.2189 111.694 88.8089 111.694 89.46C111.694 90.0378 111.873 90.4813 112.231 90.7905C112.59 91.0916 113.131 91.2422 113.855 91.2422ZM122.925 93V91.4619L124.915 91.1201V75.8491L122.925 75.5073V73.957H127.319V91.1201L129.309 91.4619V93H122.925ZM73.4131 126V124.462L75.4028 124.12V110.045H71.3745L71.0205 112.511H69.2139V108.227H83.9844V112.511H82.2021L81.8359 110.045H77.8076V124.12L79.7974 124.462V126H73.4131ZM90.7349 126.256C89.5142 126.256 88.4603 125.972 87.5732 125.402C86.6943 124.824 86.0148 124.031 85.5347 123.021C85.0545 122.004 84.8144 120.845 84.8144 119.542V119.274C84.8144 117.972 85.0545 116.816 85.5347 115.807C86.0148 114.79 86.6943 113.992 87.5732 113.415C88.4603 112.837 89.506 112.548 90.7104 112.548C91.9311 112.548 92.981 112.837 93.8599 113.415C94.7469 113.992 95.4305 114.786 95.9106 115.795C96.3908 116.804 96.6309 117.964 96.6309 119.274V119.542C96.6309 120.853 96.3908 122.016 95.9106 123.034C95.4305 124.043 94.751 124.832 93.8721 125.402C92.9932 125.972 91.9474 126.256 90.7349 126.256ZM90.7349 124.376C91.4998 124.376 92.1387 124.169 92.6514 123.754C93.1722 123.331 93.5628 122.757 93.8232 122.033C94.0918 121.3 94.2261 120.47 94.2261 119.542V119.274C94.2261 118.346 94.0918 117.52 93.8232 116.796C93.5628 116.063 93.1722 115.49 92.6514 115.075C92.1305 114.652 91.4836 114.44 90.7104 114.44C89.9455 114.44 89.3026 114.652 88.7817 115.075C88.2609 115.49 87.8703 116.063 87.6099 116.796C87.3494 117.52 87.2192 118.346 87.2192 119.274V119.542C87.2192 120.47 87.3494 121.3 87.6099 122.033C87.8703 122.757 88.2609 123.331 88.7817 123.754C89.3107 124.169 89.9617 124.376 90.7349 124.376ZM104.895 126.256C103.674 126.256 102.62 125.972 101.733 125.402C100.854 124.824 100.175 124.031 99.6948 123.021C99.2147 122.004 98.9746 120.845 98.9746 119.542V119.274C98.9746 117.972 99.2147 116.816 99.6948 115.807C100.175 114.79 100.854 113.992 101.733 113.415C102.62 112.837 103.666 112.548 104.871 112.548C106.091 112.548 107.141 112.837 108.02 113.415C108.907 113.992 109.591 114.786 110.071 115.795C110.551 116.804 110.791 117.964 110.791 119.274V119.542C110.791 120.853 110.551 122.016 110.071 123.034C109.591 124.043 108.911 124.832 108.032 125.402C107.153 125.972 106.108 126.256 104.895 126.256ZM104.895 124.376C105.66 124.376 106.299 124.169 106.812 123.754C107.332 123.331 107.723 122.757 107.983 122.033C108.252 121.3 108.386 120.47 108.386 119.542V119.274C108.386 118.346 108.252 117.52 107.983 116.796C107.723 116.063 107.332 115.49 106.812 115.075C106.291 114.652 105.644 114.44 104.871 114.44C104.106 114.44 103.463 114.652 102.942 115.075C102.421 115.49 102.03 116.063 101.77 116.796C101.51 117.52 101.379 118.346 101.379 119.274V119.542C101.379 120.47 101.51 121.3 101.77 122.033C102.03 122.757 102.421 123.331 102.942 123.754C103.471 124.169 104.122 124.376 104.895 124.376ZM112.28 126V124.462L114.27 124.12V108.849L112.28 108.507V106.957H116.675V124.12L118.665 124.462V126H112.28ZM125.732 126.256C124.845 126.256 124.015 126.167 123.242 125.988C122.469 125.809 121.647 125.532 120.776 125.158L120.752 122.021H122.571L123.022 123.913C123.478 124.1 123.918 124.238 124.341 124.328C124.772 124.409 125.236 124.45 125.732 124.45C126.709 124.45 127.409 124.263 127.832 123.888C128.255 123.514 128.467 123.05 128.467 122.497C128.467 121.976 128.251 121.536 127.82 121.178C127.397 120.812 126.624 120.503 125.5 120.25C123.905 119.884 122.729 119.396 121.973 118.786C121.224 118.167 120.85 117.345 120.85 116.32C120.85 115.604 121.057 114.965 121.472 114.403C121.887 113.834 122.465 113.382 123.206 113.048C123.946 112.715 124.809 112.548 125.793 112.548C126.794 112.548 127.649 112.662 128.357 112.89C129.073 113.118 129.696 113.423 130.225 113.805L130.347 116.82H128.54L128.149 115.062C127.865 114.851 127.527 114.688 127.136 114.574C126.746 114.46 126.298 114.403 125.793 114.403C125.045 114.403 124.434 114.578 123.962 114.928C123.499 115.278 123.267 115.718 123.267 116.247C123.267 116.556 123.332 116.824 123.462 117.052C123.6 117.28 123.861 117.488 124.243 117.675C124.626 117.854 125.187 118.033 125.928 118.212C127.767 118.643 129.049 119.193 129.773 119.86C130.505 120.527 130.872 121.349 130.872 122.326C130.872 123.441 130.457 124.376 129.626 125.133C128.805 125.882 127.507 126.256 125.732 126.256Z" fill="white"/>
</svg>
