<svg viewBox="0 0 200 200" fill="none" xmlns="http://www.w3.org/2000/svg">
<path d="M90 5.7735C96.188 2.20085 103.812 2.20085 110 5.7735L176.603 44.2265C182.791 47.7992 186.603 54.4017 186.603 61.547V138.453C186.603 145.598 182.791 152.201 176.603 155.774L110 194.226C103.812 197.799 96.188 197.799 90 194.226L23.3975 155.774C17.2094 152.201 13.3975 145.598 13.3975 138.453V61.547C13.3975 54.4017 17.2094 47.7992 23.3975 44.2265L90 5.7735Z" fill="#559CAD"/>
<path d="M43.5547 110V108.462L45.5444 108.12V94.1187L43.5547 93.7769V92.2266H45.5444H51.7212C52.9907 92.2266 54.0731 92.4504 54.9683 92.8979C55.8634 93.3374 56.547 93.9559 57.019 94.7534C57.491 95.5509 57.727 96.4827 57.727 97.5488C57.727 98.623 57.491 99.5589 57.019 100.356C56.547 101.154 55.8634 101.772 54.9683 102.212C54.0731 102.651 52.9907 102.871 51.7212 102.871H47.9492V108.12L49.939 108.462V110H43.5547ZM47.9492 100.991H51.7212C52.9256 100.991 53.8249 100.67 54.4189 100.027C55.0212 99.3758 55.3223 98.5579 55.3223 97.5732C55.3223 96.5885 55.0212 95.7666 54.4189 95.1074C53.8249 94.4482 52.9256 94.1187 51.7212 94.1187H47.9492V100.991ZM59.2895 110V108.462L61.2793 108.12V98.6841L59.2895 98.3423V96.792H63.4277L63.6353 98.4766L63.6597 98.7085C64.034 98.033 64.4938 97.5041 65.0391 97.1216C65.5924 96.7391 66.2231 96.5479 66.9311 96.5479C67.1834 96.5479 67.4398 96.5723 67.7002 96.6211C67.9687 96.6618 68.16 96.7025 68.2739 96.7432L67.9565 98.9771L66.2842 98.8794C65.6494 98.8387 65.1164 98.9852 64.6851 99.3188C64.2537 99.6444 63.9201 100.084 63.6841 100.637V108.12L65.6738 108.462V110H59.2895ZM75.4639 110.256C74.2432 110.256 73.1893 109.972 72.3022 109.402C71.4233 108.824 70.7438 108.031 70.2637 107.021C69.7835 106.004 69.5435 104.845 69.5435 103.542V103.274C69.5435 101.972 69.7835 100.816 70.2637 99.8071C70.7438 98.7899 71.4233 97.9924 72.3022 97.4146C73.1893 96.8368 74.235 96.5479 75.4394 96.5479C76.6602 96.5479 77.71 96.8368 78.5889 97.4146C79.4759 97.9924 80.1595 98.7858 80.6396 99.7949C81.1198 100.804 81.3599 101.964 81.3599 103.274V103.542C81.3599 104.853 81.1198 106.016 80.6396 107.034C80.1595 108.043 79.48 108.832 78.6011 109.402C77.7222 109.972 76.6764 110.256 75.4639 110.256ZM75.4639 108.376C76.2288 108.376 76.8677 108.169 77.3804 107.754C77.9012 107.331 78.2918 106.757 78.5522 106.033C78.8208 105.3 78.9551 104.47 78.9551 103.542V103.274C78.9551 102.346 78.8208 101.52 78.5522 100.796C78.2918 100.063 77.9012 99.4897 77.3804 99.0747C76.8595 98.6515 76.2126 98.4399 75.4394 98.4399C74.6745 98.4399 74.0316 98.6515 73.5107 99.0747C72.9899 99.4897 72.5993 100.063 72.3389 100.796C72.0784 101.52 71.9482 102.346 71.9482 103.274V103.542C71.9482 104.47 72.0784 105.3 72.3389 106.033C72.5993 106.757 72.9899 107.331 73.5107 107.754C74.0397 108.169 74.6908 108.376 75.4639 108.376ZM85.6445 115.334C85.4574 115.334 85.2132 115.31 84.9121 115.261C84.611 115.221 84.3791 115.18 84.2163 115.139L84.4604 113.247C84.5988 113.263 84.79 113.276 85.0342 113.284C85.2783 113.3 85.4451 113.308 85.5347 113.308C86.0474 113.308 86.4624 113.113 86.7798 112.722C87.1053 112.332 87.4064 111.799 87.6831 111.123L88.2568 109.731L83.5815 98.5376L82.1655 98.3423V96.792H87.7075V98.3423L86.1084 98.5864L88.6841 105.19L89.3066 106.912H89.3799L92.4316 98.5864L90.7471 98.3423V96.792H96.1792V98.3423L94.812 98.5376L89.6118 112.026C89.3677 112.661 89.0706 113.227 88.7207 113.723C88.3789 114.228 87.9557 114.622 87.4512 114.907C86.9547 115.192 86.3525 115.334 85.6445 115.334ZM103.027 110.256C101.807 110.256 100.745 109.98 99.8413 109.426C98.938 108.865 98.2381 108.088 97.7417 107.095C97.2534 106.102 97.0093 104.954 97.0093 103.652V103.115C97.0093 101.862 97.2656 100.743 97.7783 99.7583C98.2991 98.7655 98.9868 97.9842 99.8413 97.4146C100.704 96.8368 101.644 96.5479 102.661 96.5479C103.849 96.5479 104.842 96.792 105.64 97.2803C106.445 97.7686 107.052 98.4562 107.458 99.3433C107.865 100.222 108.069 101.26 108.069 102.456V103.958H99.4995L99.4629 104.019C99.4792 104.865 99.6256 105.618 99.9023 106.277C100.187 106.928 100.594 107.441 101.123 107.815C101.652 108.189 102.287 108.376 103.027 108.376C103.841 108.376 104.553 108.263 105.164 108.035C105.782 107.799 106.315 107.477 106.763 107.07L107.703 108.633C107.231 109.089 106.604 109.475 105.823 109.792C105.05 110.102 104.118 110.256 103.027 110.256ZM99.5728 102.078H105.664V101.76C105.664 101.125 105.55 100.56 105.322 100.063C105.103 99.5589 104.769 99.1642 104.321 98.8794C103.882 98.5864 103.328 98.4399 102.661 98.4399C102.124 98.4399 101.636 98.5986 101.196 98.916C100.757 99.2253 100.395 99.6484 100.11 100.186C99.825 100.723 99.6379 101.333 99.5483 102.017L99.5728 102.078ZM116.406 110.256C115.21 110.256 114.168 109.98 113.281 109.426C112.394 108.865 111.707 108.088 111.218 107.095C110.73 106.102 110.486 104.954 110.486 103.652V103.14C110.486 101.886 110.722 100.763 111.194 99.7705C111.666 98.7777 112.345 97.9924 113.232 97.4146C114.119 96.8368 115.177 96.5479 116.406 96.5479C117.472 96.5479 118.404 96.7228 119.202 97.0728C120.007 97.4227 120.683 97.9028 121.228 98.5132L121.289 101.687H119.409L118.994 99.3799C118.717 99.0951 118.372 98.8672 117.957 98.6963C117.542 98.5254 117.053 98.4399 116.492 98.4399C115.776 98.4399 115.145 98.6515 114.6 99.0747C114.062 99.4979 113.643 100.063 113.342 100.771C113.041 101.479 112.891 102.269 112.891 103.14V103.652C112.891 104.613 113.029 105.447 113.306 106.155C113.59 106.863 113.993 107.412 114.514 107.803C115.043 108.185 115.67 108.376 116.394 108.376C117.208 108.376 117.883 108.153 118.42 107.705C118.958 107.257 119.287 106.643 119.409 105.862H121.57L121.594 105.935C121.554 106.692 121.33 107.4 120.923 108.059C120.516 108.718 119.934 109.251 119.177 109.658C118.429 110.057 117.505 110.256 116.406 110.256ZM128.137 110.208C127.161 110.208 126.383 109.923 125.806 109.353C125.236 108.775 124.951 107.856 124.951 106.594V98.5742H122.864V96.792H124.951V93.606H127.356V96.792H130.225V98.5742H127.356V106.594C127.356 107.229 127.482 107.697 127.734 107.998C127.987 108.299 128.324 108.45 128.748 108.45C129.032 108.45 129.35 108.425 129.7 108.376C130.05 108.319 130.322 108.271 130.518 108.23L130.847 109.805C130.497 109.91 130.066 110.004 129.553 110.085C129.049 110.167 128.577 110.208 128.137 110.208ZM138.11 110.256C136.89 110.256 135.836 109.972 134.949 109.402C134.07 108.824 133.39 108.031 132.91 107.021C132.43 106.004 132.19 104.845 132.19 103.542V103.274C132.19 101.972 132.43 100.816 132.91 99.8071C133.39 98.7899 134.07 97.9924 134.949 97.4146C135.836 96.8368 136.882 96.5479 138.086 96.5479C139.307 96.5479 140.356 96.8368 141.235 97.4146C142.122 97.9924 142.806 98.7858 143.286 99.7949C143.766 100.804 144.006 101.964 144.006 103.274V103.542C144.006 104.853 143.766 106.016 143.286 107.034C142.806 108.043 142.126 108.832 141.248 109.402C140.369 109.972 139.323 110.256 138.11 110.256ZM138.11 108.376C138.875 108.376 139.514 108.169 140.027 107.754C140.548 107.331 140.938 106.757 141.199 106.033C141.467 105.3 141.602 104.47 141.602 103.542V103.274C141.602 102.346 141.467 101.52 141.199 100.796C140.938 100.063 140.548 99.4897 140.027 99.0747C139.506 98.6515 138.859 98.4399 138.086 98.4399C137.321 98.4399 136.678 98.6515 136.157 99.0747C135.636 99.4897 135.246 100.063 134.985 100.796C134.725 101.52 134.595 102.346 134.595 103.274V103.542C134.595 104.47 134.725 105.3 134.985 106.033C135.246 106.757 135.636 107.331 136.157 107.754C136.686 108.169 137.337 108.376 138.11 108.376ZM151.208 110.256C150.321 110.256 149.491 110.167 148.718 109.988C147.945 109.809 147.123 109.532 146.252 109.158L146.228 106.021H148.047L148.499 107.913C148.954 108.1 149.394 108.238 149.817 108.328C150.248 108.409 150.712 108.45 151.208 108.45C152.185 108.45 152.885 108.263 153.308 107.888C153.731 107.514 153.943 107.05 153.943 106.497C153.943 105.976 153.727 105.536 153.296 105.178C152.873 104.812 152.1 104.503 150.977 104.25C149.382 103.884 148.206 103.396 147.449 102.786C146.7 102.167 146.326 101.345 146.326 100.32C146.326 99.6037 146.533 98.9648 146.948 98.4033C147.363 97.8337 147.941 97.382 148.682 97.0483C149.422 96.7147 150.285 96.5479 151.27 96.5479C152.271 96.5479 153.125 96.6618 153.833 96.8896C154.549 97.1175 155.172 97.4227 155.701 97.8052L155.823 100.82H154.016L153.625 99.0625C153.341 98.8509 153.003 98.6882 152.612 98.5742C152.222 98.4603 151.774 98.4033 151.27 98.4033C150.521 98.4033 149.91 98.5783 149.438 98.9282C148.975 99.2782 148.743 99.7176 148.743 100.247C148.743 100.556 148.808 100.824 148.938 101.052C149.076 101.28 149.337 101.488 149.719 101.675C150.102 101.854 150.663 102.033 151.404 102.212C153.243 102.643 154.525 103.193 155.249 103.86C155.981 104.527 156.348 105.349 156.348 106.326C156.348 107.441 155.933 108.376 155.103 109.133C154.281 109.882 152.983 110.256 151.208 110.256Z" fill="white"/>
</svg>
