<svg width="200" height="200" viewBox="0 0 200 200" fill="none" xmlns="http://www.w3.org/2000/svg">
<path d="M90 5.7735C96.188 2.20085 103.812 2.20085 110 5.7735L176.603 44.2265C182.791 47.7992 186.603 54.4017 186.603 61.547V138.453C186.603 145.598 182.791 152.201 176.603 155.773L110 194.227C103.812 197.799 96.188 197.799 90 194.227L23.3975 155.773C17.2094 152.201 13.3975 145.598 13.3975 138.453V61.547C13.3975 54.4017 17.2094 47.7992 23.3975 44.2265L90 5.7735Z" fill="#364156"/>
<path d="M77.2949 110V108.462L79.2847 108.12V94.1187L77.2949 93.7769V92.2266H79.2847H85.4614C86.731 92.2266 87.8133 92.4504 88.7085 92.8979C89.6037 93.3374 90.2873 93.9559 90.7593 94.7534C91.2313 95.5509 91.4673 96.4827 91.4673 97.5488C91.4673 98.623 91.2313 99.5589 90.7593 100.356C90.2873 101.154 89.6037 101.772 88.7085 102.212C87.8133 102.651 86.731 102.871 85.4614 102.871H81.6894V108.12L83.6792 108.462V110H77.2949ZM81.6894 100.991H85.4614C86.6658 100.991 87.5651 100.67 88.1592 100.027C88.7614 99.3758 89.0625 98.5579 89.0625 97.5732C89.0625 96.5885 88.7614 95.7666 88.1592 95.1074C87.5651 94.4482 86.6658 94.1187 85.4614 94.1187H81.6894V100.991ZM100.708 110.256C99.5605 110.256 98.5311 110.037 97.6196 109.597C96.7082 109.158 95.931 108.539 95.2881 107.742C94.6533 106.936 94.165 105.984 93.8232 104.885C93.4896 103.787 93.3228 102.574 93.3228 101.248V100.991C93.3228 99.6729 93.4896 98.4644 93.8232 97.3657C94.165 96.259 94.6533 95.3027 95.2881 94.4971C95.931 93.6914 96.7082 93.0688 97.6196 92.6294C98.5311 92.1899 99.5605 91.9702 100.708 91.9702C101.921 91.9702 102.987 92.1899 103.906 92.6294C104.826 93.0688 105.595 93.6914 106.213 94.4971C106.84 95.3027 107.312 96.259 107.629 97.3657C107.947 98.4644 108.105 99.6729 108.105 100.991V101.248C108.105 102.574 107.947 103.787 107.629 104.885C107.312 105.984 106.84 106.936 106.213 107.742C105.595 108.539 104.826 109.158 103.906 109.597C102.987 110.037 101.921 110.256 100.708 110.256ZM100.708 108.254C101.888 108.254 102.84 107.961 103.564 107.375C104.297 106.79 104.834 105.972 105.176 104.922C105.518 103.864 105.688 102.639 105.688 101.248V100.967C105.688 99.5833 105.514 98.3708 105.164 97.3291C104.822 96.2793 104.285 95.4614 103.552 94.8755C102.82 94.2814 101.872 93.9844 100.708 93.9844C99.6419 93.9844 98.7386 94.2814 97.998 94.8755C97.2575 95.4696 96.696 96.2915 96.3135 97.3413C95.931 98.383 95.7397 99.5915 95.7397 100.967V101.248C95.7397 102.631 95.931 103.852 96.3135 104.91C96.696 105.959 97.2575 106.781 97.998 107.375C98.7386 107.961 99.6419 108.254 100.708 108.254ZM116.37 110.256C115.287 110.256 114.246 110.098 113.245 109.78C112.244 109.463 111.287 108.975 110.376 108.315V104.519H112.244L112.646 107.314C113.175 107.64 113.749 107.892 114.368 108.071C114.986 108.25 115.653 108.34 116.37 108.34C117.183 108.34 117.871 108.218 118.433 107.974C119.002 107.721 119.438 107.375 119.739 106.936C120.04 106.497 120.19 105.984 120.19 105.398C120.19 104.853 120.06 104.373 119.8 103.958C119.539 103.542 119.108 103.18 118.506 102.871C117.912 102.554 117.098 102.277 116.064 102.041C114.844 101.756 113.81 101.378 112.964 100.906C112.126 100.426 111.487 99.8478 111.047 99.1724C110.616 98.4888 110.4 97.7075 110.4 96.8286C110.4 95.9009 110.645 95.0708 111.133 94.3384C111.629 93.606 112.317 93.0282 113.196 92.605C114.075 92.1818 115.1 91.9702 116.272 91.9702C117.517 91.9702 118.616 92.1615 119.568 92.5439C120.528 92.9183 121.318 93.374 121.936 93.9111V97.4634H120.068L119.666 94.9243C119.299 94.6313 118.844 94.3872 118.298 94.1919C117.753 93.9966 117.078 93.8989 116.272 93.8989C115.588 93.8989 114.986 94.021 114.465 94.2651C113.944 94.5011 113.538 94.8348 113.245 95.2661C112.952 95.6974 112.805 96.2061 112.805 96.792C112.805 97.3047 112.935 97.7523 113.196 98.1348C113.464 98.5173 113.896 98.855 114.49 99.1479C115.092 99.4328 115.894 99.7013 116.895 99.9536C118.766 100.417 120.182 101.105 121.143 102.017C122.111 102.92 122.595 104.039 122.595 105.374C122.595 106.326 122.339 107.172 121.826 107.913C121.313 108.645 120.589 109.219 119.653 109.634C118.726 110.049 117.631 110.256 116.37 110.256Z" fill="white"/>
</svg>
